<?xml version="1.0" encoding="UTF-8"?>
<svg width="700pt" height="700pt" version="1.1" viewBox="0 0 700 700" xmlns="http://www.w3.org/2000/svg">
 <g fill-rule="evenodd">
  <path d="m350 70c-57.988 0-105 47.012-105 105s47.012 105 105 105 105-47.012 105-105-47.012-105-105-105z"/>
  <path d="m297.5 313.77c-32.488 0-63.648 12.906-86.621 35.879-22.973 22.973-35.879 54.133-35.879 86.621 0 13.922 5.5312 27.277 15.375 37.121 9.8477 9.8477 23.199 15.379 37.125 15.379h245c13.926 0 27.277-5.5312 37.121-15.379 9.8477-9.8438 15.379-23.199 15.379-37.121 0-32.488-12.906-63.648-35.879-86.621-22.973-22.973-54.133-35.879-86.621-35.879z"/>
 </g>
</svg>
